{
  "accessors": [
    {
      "bufferView": 2,
      "componentType": 5126,
      "count": 1730,
      "max": [
        4.240311145782471,
        11.350561141967773,
        4.235973358154297
      ],
      "min": [
        -4.2364068031311035,
        0.14994478225708008,
        -4.229691982269287
      ],
      "type": "VEC3"
    },
    {
      "bufferView": 2,
      "byteOffset": 20760,
      "componentType": 5126,
      "count": 1730,
      "type": "VEC3"
    },
    {
      "bufferView": 3,
      "componentType": 5126,
      "count": 1730,
      "type": "VEC4"
    },
    {
      "bufferView": 1,
      "componentType": 5126,
      "count": 1730,
      "type": "VEC2"
    },
    {
      "bufferView": 0,
      "componentType": 5125,
      "count": 8934,
      "type": "SCALAR"
    }
  ],
  "asset": {
    "generator": "fab-model-conversion",
    "version": "2.0"
  },
  "bufferViews": [
    {
      "buffer": 0,
      "byteLength": 35736,
      "target": 34963
    },
    {
      "buffer": 0,
      "byteLength": 13840,
      "byteOffset": 35736,
      "byteStride": 8,
      "target": 34962
    },
    {
      "buffer": 0,
      "byteLength": 41520,
      "byteOffset": 49576,
      "byteStride": 12,
      "target": 34962
    },
    {
      "buffer": 0,
      "byteLength": 27680,
      "byteOffset": 91096,
      "byteStride": 16,
      "target": 34962
    }
  ],
  "buffers": [
    {
      "byteLength": 118776,
      "uri": "scene.bin"
    }
  ],
  "images": [
    {
      "uri": "textures/Stylized_Bomb_mat_baseColor.png"
    },
    {
      "uri": "textures/Stylized_Bomb_mat_metallicRoughness.png"
    },
    {
      "uri": "textures/Stylized_Bomb_mat_normal.png"
    }
  ],
  "materials": [
    {
      "doubleSided": true,
      "name": "Stylized_Bomb_mat",
      "normalTexture": {
        "index": 2
      },
      "pbrMetallicRoughness": {
        "baseColorTexture": {
          "index": 0
        },
        "metallicRoughnessTexture": {
          "index": 1
        }
      }
    }
  ],
  "meshes": [
    {
      "name": "Stylized_Bomb_Stylized_Bomb_mat_0",
      "primitives": [
        {
          "attributes": {
            "NORMAL": 1,
            "POSITION": 0,
            "TANGENT": 2,
            "TEXCOORD_0": 3
          },
          "indices": 4,
          "material": 0,
          "mode": 4
        }
      ]
    }
  ],
  "nodes": [
    {
      "children": [
        1
      ],
      "matrix": [
        1.0,
        0.0,
        0.0,
        0.0,
        0.0,
        2.220446049250313e-16,
        -1.0,
        0.0,
        0.0,
        1.0,
        2.220446049250313e-16,
        0.0,
        0.0,
        0.0,
        0.0,
        1.0
      ],
      "name": "Sketchfab_model"
    },
    {
      "children": [
        2
      ],
      "matrix": [
        0.009999999776482582,
        0.0,
        0.0,
        0.0,
        0.0,
        0.0,
        0.009999999776482582,
        0.0,
        0.0,
        -0.009999999776482582,
        0.0,
        0.0,
        0.0,
        0.0,
        0.0,
        1.0
      ],
      "name": "776f9062d1bb46408dd8a2a17c0f6153.fbx"
    },
    {
      "children": [
        3
      ],
      "name": "RootNode"
    },
    {
      "children": [
        4
      ],
      "matrix": [
        4.072027206420898,
        0.0,
        0.0,
        0.0,
        0.0,
        4.072027206420898,
        0.0,
        0.0,
        0.0,
        0.0,
        4.072027206420898,
        0.0,
        -0.005997123662382364,
        -0.610579252243042,
        -0.009648279286921024,
        1.0
      ],
      "name": "Stylized_Bomb"
    },
    {
      "mesh": 0,
      "name": "Stylized_Bomb_Stylized_Bomb_mat_0"
    }
  ],
  "samplers": [
    {
      "magFilter": 9729,
      "minFilter": 9987,
      "wrapS": 10497,
      "wrapT": 10497
    }
  ],
  "scene": 0,
  "scenes": [
    {
      "name": "Sketchfab_Scene",
      "nodes": [
        0
      ]
    }
  ],
  "textures": [
    {
      "sampler": 0,
      "source": 0
    },
    {
      "sampler": 0,
      "source": 1
    },
    {
      "sampler": 0,
      "source": 2
    }
  ]
}
